<?xml version="1.0" standalone="no"?>
<!DOCTYPE svg PUBLIC "-//W3C//DTD SVG 20010904//EN"
 "http://www.w3.org/TR/2001/REC-SVG-20010904/DTD/svg10.dtd">
<svg version="1.0" xmlns="http://www.w3.org/2000/svg"
 width="209.000000pt" height="217.000000pt" viewBox="0 0 209.000000 217.000000"
 preserveAspectRatio="xMidYMid meet">

<g transform="translate(0.000000,217.000000) scale(0.100000,-0.100000)"
fill="#000000" stroke="none">
<path d="M299 2136 c-103 -27 -207 -114 -254 -210 -15 -30 -31 -86 -36 -124
-6 -43 -9 -352 -7 -769 l3 -698 31 -65 c54 -113 128 -181 242 -219 60 -20 80
-21 763 -21 784 0 759 -2 868 71 66 44 114 103 156 192 l27 58 -3 691 c-2 380
-7 723 -11 761 -17 165 -141 301 -306 336 -78 16 -1410 14 -1473 -3z m1474
-160 c54 -20 104 -61 130 -109 l22 -42 0 -720 c0 -584 -3 -727 -14 -759 -17
-49 -73 -111 -125 -139 l-41 -22 -705 0 -705 0 -41 22 c-54 29 -110 93 -123
140 -7 25 -11 275 -11 735 0 673 1 699 20 751 27 72 84 125 159 148 14 4 334
7 711 8 548 0 693 -3 723 -13z"/>
<path d="M405 1790 c-11 -4 -31 -20 -45 -35 l-25 -27 -3 -243 c-3 -265 2 -297
51 -330 36 -23 514 -24 550 0 49 32 52 51 52 309 0 350 13 336 -332 335 -125
0 -237 -4 -248 -9z m354 -169 c63 -45 89 -149 56 -228 -14 -32 -14 -38 0 -53
8 -9 15 -22 15 -29 0 -16 -50 -34 -69 -25 -9 4 -51 6 -94 5 -69 -3 -82 0 -116
22 -48 32 -73 84 -74 156 -2 72 26 128 79 159 54 31 154 28 203 -7z"/>
<path d="M589 1551 c-23 -24 -29 -38 -29 -75 0 -77 32 -116 95 -116 29 0 31
11 8 47 -16 24 -16 26 2 39 25 18 51 18 59 -1 9 -24 26 -17 26 10 0 38 -25 90
-51 109 -36 25 -76 20 -110 -13z"/>
<path d="M1153 1780 c-66 -40 -66 -44 -64 -378 l1 -192 33 -37 33 -36 259 2
c239 2 262 4 291 22 18 11 35 26 38 35 3 9 6 129 6 267 0 232 -2 254 -19 281
-35 53 -46 55 -306 56 -221 0 -243 -2 -272 -20z m116 -177 c6 -21 18 -71 27
-112 19 -84 23 -81 49 29 23 100 37 120 80 120 32 0 34 -2 50 -57 9 -32 24
-83 34 -113 l18 -55 12 60 c33 158 33 160 74 163 29 3 37 0 37 -13 0 -21 -68
-293 -80 -322 -7 -18 -18 -23 -44 -23 -42 0 -45 5 -76 120 -12 47 -25 89 -29
93 -4 4 -21 -41 -37 -100 l-29 -108 -42 -3 c-39 -3 -42 -1 -52 30 -16 49 -81
305 -81 317 0 6 18 11 40 11 37 0 40 -2 49 -37z"/>
<path d="M441 1041 c-57 -10 -97 -53 -106 -113 -4 -24 -5 -137 -3 -253 5 -312
-3 -305 328 -305 247 0 270 5 305 63 18 29 20 51 20 272 0 344 11 331 -296
339 -112 3 -224 1 -248 -3z m337 -193 l3 -38 -86 0 -86 0 3 -32 3 -33 78 -3
78 -3 -3 -32 -3 -32 -78 -3 -78 -3 3 -37 3 -37 83 -3 82 -3 0 -35 0 -35 -122
3 -123 3 -3 177 -2 177 42 4 c24 2 79 3 123 3 l80 -1 3 -37z"/>
<path d="M1233 1041 c-56 -5 -77 -11 -96 -29 -45 -43 -48 -63 -45 -325 l3
-247 33 -32 32 -33 239 -3 c268 -3 295 2 331 60 19 31 20 50 20 276 0 344 6
336 -270 337 -96 1 -207 -1 -247 -4z m298 -199 c22 -24 29 -42 29 -73 0 -45
-21 -93 -45 -102 -23 -9 -19 -24 20 -77 19 -26 35 -53 35 -59 0 -17 -76 -13
-94 5 -9 8 -28 35 -42 60 -19 32 -32 44 -49 44 -22 0 -24 -5 -27 -57 -3 -58
-3 -58 -37 -61 -20 -2 -37 2 -42 10 -11 16 -12 332 -2 342 5 4 57 6 116 4 108
-3 109 -3 138 -36z"/>
<path d="M1360 761 l0 -51 43 0 c57 0 85 27 71 68 -8 24 -15 27 -62 30 l-52 3
0 -50z"/>
</g>
</svg>
